<?xml version="1.0" encoding="UTF-8"?>
<svg id="Layer_1" data-name="Layer 1" xmlns="http://www.w3.org/2000/svg" version="1.1" viewBox="0 0 150 150">
  <defs>
    <style>
      .cls-1 {
        fill: #fff;
      }

      .cls-1, .cls-2 {
        stroke-width: 0px;
      }

      .cls-2 {
        fill: #231f20;
      }
    </style>
  </defs>
  <circle class="cls-1" cx="75" cy="75" r="75"/>
  <g>
    <path class="cls-2" d="M29.2,88.5l-12.8-7.4-3.9-14.3,7.4-12.8,12.7-3.4-3.4-12.6,7.4-12.9,14.3-3.8,12.8,7.4,12.8,47.1-47.3,12.7ZM18.5,79.5l11.1,6.4,43.9-11.8-11.8-43.8-11.1-6.4-12.4,3.3-6.4,11.1,3.8,14-14.1,3.8-6.4,11.1,3.4,12.3Z"/>
    <path class="cls-2" d="M99.1,128.7l-12.8-7.4-12.8-47.1,47.3-12.7,12.8,7.4,3.9,14.3-7.4,12.8-12.7,3.4,3.4,12.6-7.4,12.9-14.3,3.8ZM88.4,119.7l11.1,6.4,12.4-3.3,6.4-11.1-3.8-14,14.1-3.8,6.4-11.1-3.4-12.3-11.1-6.4-43.9,11.8,11.8,43.8Z"/>
    <path class="cls-2" d="M75.1,76.6l-34.6-34.6v-14.8l10.4-10.5h14.8l9.3,9.3,9.2-9.3h14.9l10.4,10.5v14.8l-34.4,34.6ZM42.9,41l32.1,32.1,32-32.1v-12.8l-9-9.1h-12.8l-10.2,10.3-10.3-10.3h-12.8l-9,9.1v12.8Z"/>
    <path class="cls-2" d="M99.1,133.3h-14.8l-9.3-9.3-9.2,9.3h-14.9l-10.4-10.5v-14.8l34.4-34.6,34.6,34.6v14.8l-10.4,10.5ZM85.3,130.9h12.8l9-9.1v-12.8l-32.1-32.1-32,32.1v12.8l9,9.1h12.8l10.2-10.3,10.3,10.3Z"/>
    <path class="cls-2" d="M120.7,88.4l-47.2-12.5,12.7-47.3,12.8-7.4,14.3,3.8,7.4,12.8-3.4,12.7,12.6,3.3,7.4,12.9-3.9,14.3-12.8,7.4ZM76.5,74.1l43.8,11.6,11.1-6.4,3.4-12.3-6.4-11.1-14-3.7,3.8-14.1-6.4-11.1-12.4-3.3-11.1,6.4-11.8,43.9Z"/>
    <path class="cls-2" d="M51,128.8l-14.3-3.8-7.4-12.8,3.4-12.7-12.6-3.3-7.4-12.9,3.9-14.3,12.8-7.4,47.2,12.5-12.7,47.3-12.8,7.4ZM38.3,122.9l12.4,3.3,11.1-6.4,11.8-43.9-43.8-11.6-11.1,6.4-3.4,12.3,6.4,11.1,14,3.7-3.8,14.1,6.4,11.1Z"/>
  </g>
</svg>