<?xml version="1.0" encoding="UTF-8"?><svg id="a" xmlns="http://www.w3.org/2000/svg" viewBox="0 0 958.905 895.224"><path d="M128.213,551.234l-98.36-56.788L0,384.795l56.809-98.399,97.269-26.063-26.346-96.775,57.122-98.94,109.886-28.972,98.348,56.781,97.81,361.624-362.685,97.182ZM46.001,482.002l84.876,49.002,336.891-90.27-90.843-335.872-84.888-49.009-94.787,24.991-49.271,85.336,29.255,107.46-108.006,28.939-48.981,84.837,25.753,94.584Z" fill="#231f20" stroke-width="0"/><path d="M664.166,859.577l-98.348-56.781-97.812-361.624,362.687-97.182,98.36,56.788,29.853,109.651-56.811,98.399-97.269,26.063,26.349,96.775-57.122,98.94-109.886,28.972ZM581.98,790.361l84.888,49.009,94.787-24.991,49.271-85.336-29.259-107.46,108.008-28.939,48.983-84.837-25.753-94.584-84.876-49.002-336.893,90.27,90.845,335.872Z" fill="#231f20" stroke-width="0"/><path d="M480.069,459.759L214.566,194.258v-113.579L294.599,0h113.622l71.204,71.206L550.063,0h114.244l80.033,80.679v113.565l-264.27,265.515ZM233.416,186.448l246.621,246.624,245.452-246.61v-98.019l-69.034-69.593h-98.542l-78.433,79.066-79.069-79.066h-97.962l-69.034,69.593v98.006Z" fill="#231f20" stroke-width="0"/><path d="M664.306,895.224h-113.622l-71.204-71.206-70.638,71.206h-114.244l-80.033-80.679v-113.565l264.27-265.515,265.503,265.501v113.579l-80.033,80.679ZM558.494,876.374h97.962l69.034-69.593v-98.006l-246.621-246.624-245.452,246.61v98.019l69.034,69.593h98.542l78.433-79.066,79.069,79.066Z" fill="#231f20" stroke-width="0"/><path d="M830.299,550.203l-362.08-96.107,97.182-362.687,98.36-56.788,109.888,28.972,56.811,98.399-26.063,97.269,96.982,25.568,57.122,98.94-29.853,109.651-98.348,56.784ZM491.317,440.723l336.295,89.264,84.888-49.011,25.753-94.584-49.271-85.336-107.69-28.394,28.939-108.006-48.979-84.837-94.789-24.991-84.876,49.002-90.27,336.893Z" fill="#231f20" stroke-width="0"/><path d="M295.144,860.603l-109.888-28.972-56.811-98.399,26.063-97.269-96.982-25.568L.405,511.455l29.851-109.651,98.348-56.784,362.082,96.107-97.182,362.687-98.36,56.788ZM197.654,815.405l94.789,24.991,84.876-49.002,90.27-336.893-336.297-89.264-84.888,49.011-25.75,94.584,49.271,85.336,107.69,28.394-28.939,108.006,48.979,84.837Z" fill="#231f20" stroke-width="0"/></svg>