<?xml version="1.0" encoding="UTF-8"?><svg id="a" xmlns="http://www.w3.org/2000/svg" viewBox="0 0 652 244"><path d="M58.249,143.989l-20.873-12.051-6.335-23.269,12.055-20.881,20.641-5.531-5.591-20.536,12.122-20.996,23.318-6.148,20.87,12.049,20.756,76.739-76.964,20.623ZM40.803,129.298l18.011,10.398,71.49-19.156-19.277-71.274-18.014-10.4-20.114,5.303-10.456,18.109,6.208,22.804-22.919,6.141-10.394,18.003,5.465,20.071Z" fill="#231f20" stroke-width="0"/><path d="M171.981,209.421l-20.87-12.049-20.756-76.739,76.964-20.623,20.873,12.051,6.335,23.269-12.056,20.881-20.641,5.531,5.591,20.536-12.122,20.996-23.318,6.148ZM154.541,194.733l18.014,10.4,20.114-5.303,10.456-18.109-6.209-22.804,22.92-6.141,10.395-18.003-5.465-20.071-18.011-10.398-71.491,19.156,19.278,71.274Z" fill="#231f20" stroke-width="0"/><path d="M132.915,124.578l-56.341-56.341v-24.102l16.983-17.121h24.111l15.11,15.11,14.99-15.11h24.243l16.983,17.121v24.099l-56.08,56.344ZM80.573,66.58l52.334,52.335,52.086-52.332v-20.8l-14.649-14.768h-20.911l-16.644,16.778-16.779-16.778h-20.788l-14.649,14.768v20.797Z" fill="#231f20" stroke-width="0"/><path d="M172.011,216.986h-24.111l-15.11-15.11-14.99,15.11h-24.243l-16.983-17.121v-24.099l56.08-56.344,56.341,56.341v24.102l-16.983,17.121ZM149.557,212.986h20.788l14.649-14.768v-20.797l-52.334-52.335-52.086,52.332v20.8l14.649,14.768h20.911l16.644-16.778,16.779,16.778Z" fill="#231f20" stroke-width="0"/><path d="M207.235,143.771l-76.835-20.395,20.623-76.964,20.873-12.051,23.319,6.148,12.056,20.881-5.531,20.641,20.58,5.426,12.122,20.996-6.335,23.269-20.87,12.05ZM135.301,120.538l71.364,18.942,18.014-10.4,5.465-20.071-10.456-18.109-22.853-6.025,6.141-22.919-10.394-18.003-20.115-5.303-18.011,10.398-19.156,71.491Z" fill="#231f20" stroke-width="0"/><path d="M93.672,209.639l-23.319-6.148-12.056-20.881,5.531-20.641-20.58-5.426-12.122-20.996,6.334-23.269,20.87-12.05,76.836,20.395-20.623,76.964-20.873,12.051ZM72.984,200.048l20.115,5.303,18.011-10.398,19.156-71.491-71.364-18.942-18.014,10.4-5.464,20.071,10.456,18.109,22.853,6.025-6.141,22.919,10.394,18.003Z" fill="#231f20" stroke-width="0"/><path d="M303.031,158.691l-11.642,11.85v27.649h-39.498V43.938h39.498v80.868l40.33-39.291h46.774l-46.774,48.229,50.724,64.445h-47.814l-31.599-39.499Z" fill="#231f20" stroke-width="0"/><path d="M487.634,135.616v62.574h-36.796v-14.553c-5.613,10.811-16.839,16.424-33.262,16.424-27.025,0-41.993-15.176-41.993-34.718,0-20.788,15.176-33.677,50.101-33.677h22.452c-.624-11.434-8.315-17.879-23.907-17.879-10.811,0-22.867,3.742-30.56,9.771l-13.305-26.817c12.89-8.523,32.015-13.097,49.685-13.097,36.588,0,57.585,16.215,57.585,51.971ZM448.136,162.018v-9.771h-17.047c-12.681,0-17.255,4.574-17.255,11.434,0,6.652,5.405,11.435,14.76,11.435,8.731,0,16.424-4.158,19.542-13.098Z" fill="#231f20" stroke-width="0"/><path d="M618.811,85.516l-46.566,112.675h-40.746l-46.358-112.675h40.538l27.025,68.811,28.48-68.811h37.627Z" fill="#231f20" stroke-width="0"/></svg>